<svg xmlns="http://www.w3.org/2000/svg" width="599.76" height="599.76" viewBox="6.12 94.896 599.76 599.76"><title>deployment</title><path fill="#17B4E9" d="M605.88 394.776c0 165.62-134.26 299.88-299.88 299.88S6.12 560.396 6.12 394.776 140.38 94.896 306 94.896s299.88 134.26 299.88 299.88"/><path fill="#FFF" d="M89.352 364.433c16.5-72.583 83.232-121.812 157.455-117.284 74.223 4.528 133.526 61.077 141.898 135.57.33 2.95.66 5.9 1.163 10.256h36.39l-58.568 51.616c-13.892-12.987-33.538-30.233-51.738-50.845 13.464-1.224 24.137.355 35.202-.6 1.138-18.91-4.64-35.3-13.182-50.772-23.256-42.277-70.625-64.75-119.793-57.295-45.546 6.916-83.037 42.424-93.196 88.25-14.823 66.818 42.203 137.455 110.907 137.994l52.278 25.888c-28.678 6.585-57.234 9.168-79.805 5.47-58.825-9.595-101.52-51.59-117.908-109.106-5.387-18.873-4.775-52.84-1.103-69.143"/><path d="M524.998 418.228c-16.5 72.583-83.232 121.812-157.455 117.296s-133.526-61.078-141.898-135.57c-.33-2.95-.66-5.9-1.163-10.27h-36.377l58.593-51.603c13.88 12.988 33.538 30.197 51.726 50.846-13.464 1.224-24.137-.355-35.202.6-1.138 18.91 4.64 35.3 13.182 50.772 23.256 42.265 70.625 64.75 119.793 57.283 45.545-6.915 83.036-42.423 93.195-88.25 14.798-66.805-42.19-137.442-110.894-137.98l-52.29-25.9c28.68-6.586 57.235-9.17 79.806-5.472 58.825 9.584 101.52 51.592 117.908 109.107 5.386 18.874 4.774 52.84 1.065 69.132"/></svg>